<svg xmlns="http://www.w3.org/2000/svg" width="36" height="35" viewBox="0 0 36 35">
    <g fill="none" fill-rule="nonzero">
        <path fill="#EF4123" d="M17.496 10.734c.255-.68.68-1.19 1.445-1.19.85 0 1.36.68 1.36 1.445s-.34 1.19-1.02 1.956l-2.976 3.401v.765h5.187v-1.105h-3.316l2.21-2.466c.596-.68 1.106-1.53 1.106-2.55 0-1.446-1.105-2.637-2.636-2.637-.765 0-2.126.34-2.55 1.956l1.19.425zm4.846 4.337v-.766l4.422-5.782h.85v5.357h1.36v1.19h-1.36v2.126H26.34v-2.125h-3.997zm1.701-1.19h2.296v-2.892l-2.296 2.891z"/>
        <path fill="#757575" d="M30.69 27.396A15.58 15.58 0 0 0 35.625 16C35.625 7.37 28.629.375 20 .375A15.576 15.576 0 0 0 8.921 4.982a.625.625 0 0 0 .886.881A14.326 14.326 0 0 1 20 1.625c7.94 0 14.375 6.436 14.375 14.375a14.33 14.33 0 0 1-4.54 10.484.625.625 0 0 0 .855.912zM20.346 21.766c.44-.44 1.152-.44 1.591 0l5.82 5.82c.44.44.44 1.151 0 1.59l-3.755 3.755a5.625 5.625 0 0 1-7.955 0L2.074 18.957a5.625 5.625 0 0 1 0-7.954l3.64-3.64c.439-.44 1.151-.44 1.59 0l6.297 6.296c.44.44.44 1.151 0 1.59l-3.234 3.234L17 25.116l3.346-3.35zM9.395 19.279a1.125 1.125 0 0 1 0-1.591l3.234-3.234-6.12-6.12-3.552 3.552a4.375 4.375 0 0 0 0 6.188l13.974 13.974a4.375 4.375 0 0 0 6.188 0l3.666-3.667-5.643-5.643-3.346 3.35-.443-.442.442-.442v.884c-.438.44-1.15.44-1.59 0l-6.81-6.81z"/>
    </g>
</svg>
