<?xml version="1.0" encoding="utf-8"?>
<!-- Generator: Adobe Illustrator 22.0.1, SVG Export Plug-In . SVG Version: 6.00 Build 0)  -->
<svg version="1.1" id="Layer_1" xmlns="http://www.w3.org/2000/svg" xmlns:xlink="http://www.w3.org/1999/xlink" x="0px" y="0px"
	 viewBox="0 0 416.5 98.6" style="enable-background:new 0 0 416.5 98.6;" xml:space="preserve">
<style type="text/css">
	.st0{fill:none;}
	.st1{fill:#EE2A24;}
</style>
<g>
	<path class="st0" d="M49.3,31.7c-9.7,0-17.6,7.9-17.6,17.6c0,9.7,7.9,17.6,17.6,17.6c9.7,0,17.6-7.9,17.6-17.6
		C66.9,39.6,59,31.7,49.3,31.7z"/>
	<path class="st0" d="M364.7,36.4c2.4-1.7,3.5-4.7,3.5-9c0-3.9-1.1-6.7-3.4-8.3c-2.3-1.6-6.3-2.4-12-2.4h-6.4V39h7.2
		C358.6,39,362.3,38.1,364.7,36.4z"/>
	<path class="st0" d="M367,58.6c-2.8-2-7.3-3-13.4-3h-7.2v26.3h7.2c6.5,0,11.1-0.9,13.7-2.8c2.6-1.9,3.9-5.2,3.9-10
		C371.2,64.1,369.8,60.6,367,58.6z"/>
	<polygon class="st1" points="157.6,1.1 142.4,31.1 127.3,1.1 91.8,1.1 125,66.7 125,97.5 159.9,97.5 159.9,66.7 193,1.1 	"/>
	<g>
		<path class="st0" d="M235.6,31.7c-9.7,0-17.6,7.9-17.6,17.6c0,9.7,7.9,17.6,17.6,17.6c9.7,0,17.6-7.9,17.6-17.6
			C253.1,39.6,245.3,31.7,235.6,31.7z"/>
		<path class="st1" d="M235.6,0c-27.2,0-49.3,22.1-49.3,49.3c0,27.2,22.1,49.3,49.3,49.3c27.2,0,49.3-22.1,49.3-49.3
			C284.9,22.1,262.7,0,235.6,0z M235.6,66.9c-9.7,0-17.6-7.9-17.6-17.6c0-9.7,7.9-17.6,17.6-17.6c9.7,0,17.6,7.9,17.6,17.6
			C253.1,59,245.3,66.9,235.6,66.9z"/>
	</g>
	<path class="st1" d="M49.3,0C22.1,0,0,22.1,0,49.3c0,27.2,22.1,49.3,49.3,49.3c27.2,0,49.3-22.1,49.3-49.3C98.6,22.1,76.5,0,49.3,0
		z M49.3,66.9c-9.7,0-17.6-7.9-17.6-17.6c0-9.7,7.9-17.6,17.6-17.6c9.7,0,17.6,7.9,17.6,17.6C66.9,59,59,66.9,49.3,66.9z"/>
	<path class="st1" d="M379.8,46.2c9.2-4,13.8-10.7,13.8-20.3c0-6-1.8-11.2-5.3-15.6c-3.5-4.4-7.7-7.2-12.6-8.4
		c-4.8-1.2-12.2-1.7-22.2-1.7h-44.8v16.6h12.1v65h-12.1v16.6h44.8c10.4,0,18.5-0.8,24.3-2.5c5.8-1.7,10.5-4.8,14.1-9.5
		c3.6-4.6,5.5-10.2,5.5-16.7C397.5,58.5,391.6,50.6,379.8,46.2z M346.5,16.8h6.4c5.7,0,9.7,0.8,12,2.4c2.3,1.6,3.4,4.4,3.4,8.3
		c0,4.3-1.2,7.3-3.5,9c-2.4,1.7-6,2.5-11,2.5h-7.2V16.8z M367.4,79c-2.6,1.9-7.2,2.8-13.7,2.8h-7.2V55.6h7.2c6.1,0,10.6,1,13.4,3
		c2.8,2,4.2,5.5,4.2,10.5C371.2,73.8,369.9,77.1,367.4,79z"/>
	<rect x="404.9" y="27" class="st1" width="11.6" height="37.1"/>
	<rect x="291" y="27" class="st1" width="11.6" height="37.1"/>
</g>
</svg>
