<svg xmlns="http://www.w3.org/2000/svg" width="50" height="58" viewBox="0 0 50 58">
    <g fill="#EE4023" fill-rule="evenodd">
        <path d="M31.56.588h-5.567l-2.371 4.701L21.245.588h-5.563l5.197 10.288v4.845h5.485v-4.845zM38.236 10.913a2.762 2.762 0 0 1-2.758-2.76 2.762 2.762 0 0 1 2.758-2.758 2.762 2.762 0 0 1 2.758 2.758 2.762 2.762 0 0 1-2.758 2.76m0-10.497C33.97.416 30.5 3.887 30.5 8.153c0 4.268 3.471 7.739 7.737 7.739s7.74-3.47 7.74-7.739c0-4.266-3.474-7.737-7.74-7.737M9.004 10.913a2.759 2.759 0 0 1 0-5.518c1.52 0 2.76 1.238 2.76 2.758 0 1.523-1.24 2.76-2.76 2.76m0-10.497c-4.266 0-7.737 3.472-7.737 7.737 0 4.268 3.471 7.74 7.737 7.74 4.268 0 7.74-3.472 7.74-7.74 0-4.265-3.472-7.737-7.74-7.737M22.092 50.986h2.864c2.602 0 4.417-.374 5.447-1.124 1.03-.748 1.545-2.068 1.545-3.959 0-1.984-.558-3.374-1.671-4.17-1.114-.795-2.888-1.193-5.321-1.193h-2.864v10.446zm0-17.044h2.864c1.984 0 3.444-.337 4.38-1.011.936-.674 1.404-1.862 1.404-3.566 0-1.554-.454-2.649-1.361-3.286-.909-.635-2.495-.954-4.76-.954h-2.527v8.817zM7.126 57.584v-6.598h4.801v-25.86H7.126v-6.6h17.83c3.95 0 6.888.23 8.817.688 1.927.46 3.594 1.573 4.998 3.342 1.403 1.77 2.105 3.842 2.105 6.22 0 3.8-1.834 6.485-5.503 8.058 4.68 1.74 7.02 4.857 7.02 9.35 0 2.583-.726 4.797-2.176 6.64-1.452 1.845-3.324 3.1-5.616 3.764-2.294.664-5.508.996-9.645.996H7.126zM45.321 43.974h4.63V29.202h-4.63zM.049 43.974h4.63V29.202H.048z"/>
    </g>
</svg>
