<svg xmlns="http://www.w3.org/2000/svg" width="48" height="67" viewBox="0 0 48 67">
    <g fill="none" fill-rule="evenodd">
        <path fill="#EE2A24" fill-rule="nonzero" d="M39.4 40.8c0 .5.4.8.8.8h5.7v24.1c0 .5.4.8.8.8.5 0 .9-.4.9-.8V40.8c0-.5-.4-.9-.9-.9H41v-3c0-.5-.4-.9-.9-.9H23.8c-.5 0-.8.4-.8.9s.4.8.8.8h15.6v3.1z"/>
        <g fill-rule="nonzero">
            <path fill="#EE2A24" d="M25.3 66.6V20.1L17 9.9H8.3L0 19.3v47.3z"/>
            <path fill="#EE2A24" d="M12 1v9.3c0 .5.4.9.9.9s.8-.4.8-.9V1c0-.5-.4-.9-.8-.9-.5.1-.9.4-.9.9z"/>
            <path fill="#FFF" d="M10.1 23.7c-.5 0-.8-.4-.8-.9s.4-.8.8-.8h5.3c.5 0 .8.4.8.9s-.4.9-.8.9h-5.3v-.1zm0 5c-.5 0-.8-.4-.8-.9s.4-.8.8-.8h5.3c.5 0 .8.4.8.9s-.4.9-.8.9h-5.3v-.1zm0 5c-.5 0-.8-.4-.8-.9s.4-.8.8-.8h5.3c.5 0 .8.4.8.8 0 .5-.4.9-.8.9h-5.3zm0 5c-.5 0-.8-.4-.8-.9s.4-.8.8-.8h5.3c.5 0 .8.4.8.8 0 .5-.4.9-.8.9h-5.3z"/>
        </g>
        <rect width="8" height="2" x="29" y="43" fill="#EE2A24" rx="1"/>
        <rect width="8" height="2" x="34" y="47" fill="#EE2A24" rx="1"/>
    </g>
</svg>