<svg xmlns="http://www.w3.org/2000/svg" width="58" height="63" viewBox="0 0 58 63">
    <path fill="#EE2A24" fill-rule="nonzero" d="M53.323 29.556c-1.83 2.046-3.622 4.25-4.873 7.292a3.703 3.703 0 0 1-3.445 2.316 3.723 3.723 0 0 1-3.463-2.325c-1.447-3.535-3.641-5.944-5.77-8.27-.532-.585-1.064-1.171-1.586-1.776-.028.01-.047.019-.075.028-2.072.623-3.669 3.358-2.707 5.58.653 1.526 5.237 1.238 4.845 4.521-.327 2.688 3.202 3.395 4.453 3.265 1.25-.149 3.174 2.046 2.203 3.014-.962.967-2.782 1.004-2.502 3.497.074.725 2.278.633 2.278 1.73 0 1.107-1.14 2.363-.262 3.637.187.279.383.493.588.66a23.641 23.641 0 0 1-16.019 6.241c-13.041 0-23.646-10.566-23.646-23.56 0-3.943.98-7.664 2.707-10.938-.01 4.232 2.26 7.748 3.324 8.808 3.472 3.45 8.504 2.363 9.148 5.255.653 2.884-3.454 2.893-3.183 5.097.28 2.214 5.629 2.8 4.434 4.837-1.578 2.707 1.064 2.902.299 6.241-.41 1.823 2.23 2.177 3.211.79.747-1.06.598-2.362 2.1-3.952 1.84-1.954 6.106-2.27 5.63-5.497-.812-5.358-6.04-6.195-8.318-7.45-2.586-1.414-1.951-4.81-2.511-6.428-.784-2.297-3.445.642-4.864-.697-2.334-2.196.42-5.302 2.38-5.237 4.136.13 5.406 4.14 6.927 4 1.485-.13 2.446-2.196 2.707-3.293.551-2.39-.933-1.32-1.53-2.567-.803-1.665 2.819-3.256 4.219-4.484.215-.186.373-.362.457-.53.42-.818-.13-1.441-1.064-2.009-1.867-1.125-5.274-2.018-5.433-3.776-.093-1.08 1.98-1.6 4.341-1.693.392.019.775.056 1.167.093.196-1.107.513-2.195.943-3.237a26.341 26.341 0 0 0-3.445-.223C12.108 8.516 0 20.58 0 35.406c0 14.827 12.108 26.89 26.988 26.89 14.88 0 26.988-12.063 26.988-26.89 0-2.009-.224-3.971-.653-5.85zM43.735.06C36.117.777 30.9 8.133 32.228 15.64c1.35 7.628 8.409 9.976 11.912 18.537.315.772 1.405.776 1.72.004C49.745 24.686 58 22.832 58 12.952 58 5.382 51.483-.67 43.735.06zm1.266 19.731c-3.791 0-6.865-3.062-6.865-6.84 0-3.777 3.074-6.84 6.865-6.84 3.791 0 6.865 3.063 6.865 6.84 0 3.778-3.074 6.84-6.865 6.84z"/>
</svg>
