<svg xmlns="http://www.w3.org/2000/svg" width="57" height="59" viewBox="0 0 57 59">
    <g fill="none" fill-rule="nonzero">
        <path fill="#EE2A24" d="M53.1 55.7V16.1c0-2.2-1.7-4.5-3.8-5.3L35.4 6.3V1.5c0-.5-.2-.9-.6-1.2-.4-.3-.9-.4-1.3-.2L6.8 8c-2.2.6-3.9 2.9-3.9 5.2v42.5H1.5c-.8 0-1.5.7-1.5 1.5s.7 1.5 1.5 1.5h53.1c.8 0 1.5-.7 1.5-1.5s-.7-1.5-1.5-1.5h-1.5z"/>
        <path fill="#EE2A24" d="M7.7 10.7l24.6-7.4v52H5.9V13s.9-2.1 1.8-2.3zM50.1 16v39.4H35.6V9.2l12.7 4.3c.9.3 1.8 1.5 1.8 2.5z"/>
        <g fill="#FFF">
            <path d="M13.137 17.752h4v7.3h-4zM13.137 29.652h4v7.2h-4zM13.137 40.852h4v7.2h-4zM21.037 17.752h4v7.3h-4zM21.037 29.652h4v7.2h-4zM21.037 40.852h4v7.2h-4zM41.537 17.752h2.6v7.3h-2.6zM41.537 29.652h2.6v7.2h-2.6zM41.537 40.852h2.6v7.2h-2.6z"/>
        </g>
        <path fill="#FFF" d="M37.3 55.5v-53h-2v53z"/>
    </g>
</svg>
