<svg xmlns="http://www.w3.org/2000/svg" width="31" height="31" viewBox="0 0 31 31">
    <g fill="none" fill-rule="nonzero">
        <path fill="#757575" d="M29 15.375c.345 0 .625.28.625.625 0 8.077-6.548 14.625-14.625 14.625S.375 24.077.375 16 6.923 1.375 15 1.375c.345 0 .625.28.625.625v13.375H29zM1.625 16c0 7.387 5.988 13.375 13.375 13.375 7.177 0 13.034-5.653 13.36-12.75H15.5a1.125 1.125 0 0 1-1.125-1.125V2.64C7.278 2.965 1.625 8.822 1.625 16z"/>
        <path fill="#EF4123" d="M18.375 1c0-.345.28-.625.625-.625 5.43 0 11.625 5.178 11.625 11.67 0 .346-.28.625-.625.625H19a.625.625 0 0 1-.625-.625V1zm1.25 10.42h9.728c-.368-5.212-5.272-9.403-9.728-9.77v9.77z"/>
    </g>
</svg>
