<svg xmlns="http://www.w3.org/2000/svg" width="34" height="28" viewBox="0 0 34 28">
    <g fill="none" fill-rule="nonzero">
        <path fill="#757575" d="M1 1.25h32A.625.625 0 1 0 33 0H1a.625.625 0 1 0 0 1.25z"/>
        <path fill="#757575" d="M12.807 26.133a.125.125 0 0 0-.124-.007l.064-.032.06.039zM5.681 27.19a.925.925 0 0 1-1.306-.842V1h1.25v24.844l3.404-1.541a1.125 1.125 0 0 1 1.076.08l2.642 1.71 3.52-1.772c.335-.169.732-.159 1.06.026l3.089 1.748 3.08-1.747a1.125 1.125 0 0 1 1.06-.027l2.943 1.479V1h1.25v25.327a.925.925 0 0 1-1.34.826l-3.355-1.685-3.083 1.749a1.125 1.125 0 0 1-1.109 0l-3.093-1.75-3.524 1.775c-.357.18-.782.157-1.117-.06L9.483 25.47 5.68 27.19z"/>
        <path fill="#EF4123" d="M11.834 14.934c0-.314.255-.568.569-.568h2.072l.058 2.957a3.252 3.252 0 0 1-2.465 1.173c-1.914 0-3.32-1.373-3.32-3.268 0-1.848 1.418-3.269 3.262-3.269.502 0 1.12.224 1.852.67a.457.457 0 0 1 .078.72.73.73 0 0 1-.867.107c-.419-.24-.773-.36-1.063-.36-1.187 0-2.065.914-2.065 2.132 0 1.242.902 2.13 2.123 2.13.543 0 1.104-.234 1.363-.428v-1.427h-1.028a.569.569 0 0 1-.569-.569zm3.916 2.082a.719.719 0 0 1 .867-.034c.36.251.667.377.92.377.503 0 .894-.347.894-.781 0-.44-.275-.658-1.1-1.003l-.188-.078a4.608 4.608 0 0 1-.753-.376c-.532-.38-.827-.848-.827-1.478 0-1.034.84-1.8 1.973-1.8.355 0 .765.113 1.229.341a.473.473 0 0 1 .152.73.723.723 0 0 1-.834.2 1.444 1.444 0 0 0-.547-.134c-.452 0-.836.28-.836.663 0 .315.255.513.972.828l.231.101c.358.158.577.27.78.41.575.412.886.871.886 1.537 0 1.123-.869 1.918-2.033 1.918-.476 0-1.061-.236-1.754-.707a.446.446 0 0 1-.032-.714zm4.133-4.488c0-.314.255-.569.569-.569h3.018a.569.569 0 1 1 0 1.137h-.911v4.527a.598.598 0 0 1-1.196 0v-4.526h-.911a.569.569 0 0 1-.569-.569z"/>
    </g>
</svg>
