<svg xmlns="http://www.w3.org/2000/svg" width="32" height="33" viewBox="0 0 32 33">
    <g fill="none" fill-rule="nonzero">
        <path fill="#757575" d="M4.526 30.741l-1.48 1.187A1.624 1.624 0 0 1 .41 30.66V5.998C.409 2.897 2.926.375 6.023.375h19.954v1.25a2.375 2.375 0 0 0-2.368 2.374v26.66a1.624 1.624 0 0 1-2.637 1.269l-1.48-1.187-1.48 1.187a1.622 1.622 0 0 1-2.029 0l-1.48-1.187-1.48 1.187a1.622 1.622 0 0 1-2.029 0l-1.48-1.187-1.48 1.187a1.622 1.622 0 0 1-2.028 0l-1.48-1.187zM6.023 1.625a4.374 4.374 0 0 0-4.364 4.374v24.66c0 .145.082.276.213.339a.37.37 0 0 0 .392-.046l2.262-1.813.391.313 1.87 1.5c.137.11.33.11.466 0l2.262-1.813.39.313 1.871 1.5c.137.11.33.11.466 0l2.261-1.813.391.313 1.87 1.5c.137.11.33.11.466 0l2.262-1.813.391.313 1.87 1.5a.372.372 0 0 0 .606-.293V4c0-.907.334-1.738.886-2.374H6.023z"/>
        <path fill="#757575" d="M30.341 11.997V6a4.364 4.364 0 0 0-4.364-4.374c-1.887 0-2.363 1.07-2.363 4.374v7.998c0 .207.167.375.372.375h3.987a2.375 2.375 0 0 0 2.368-2.375zm-6.355 3.625a1.624 1.624 0 0 1-1.622-1.625V5.999c0-3.918.76-5.624 3.613-5.624a5.614 5.614 0 0 1 5.614 5.624v5.998a3.625 3.625 0 0 1-3.618 3.625h-3.987z"/>
        <path fill="#EF4123" d="M15.164 13.915c.338 0 .682.402.682.757 0 .345-.337.682-.682.682l-1.333-.08c-.118 1.77-1.132 2.916-3.593 2.916l-.761-.145 3.806 3.807a.67.67 0 0 1-.022.957 2.25 2.25 0 0 1-.232.106.718.718 0 0 1-.254.052c-.16 0-.235-.008-.333-.052a.579.579 0 0 1-.174-.122L7.416 17.94c-.226-.226-.266-.468-.16-.779.168-.251.418-.41.668-.41h2.314c1.61 0 2.131-.492 2.314-1.473H7.924c-.345 0-.682-.336-.682-.682 0-.345.337-.682.682-.682l4.33.127c-.31-.541-.862-.778-2.016-.778H7.924c-.345 0-.682-.336-.682-.682 0-.345.337-.682.682-.682h7.314c.346 0 .683.337.683.682 0 .346-.337.682-.683.682l-1.87-.132c.172.257.314.562.303.783h1.493z"/>
    </g>
</svg>
