<svg xmlns="http://www.w3.org/2000/svg" width="34" height="29" viewBox="0 0 34 29">
    <g fill="none" fill-rule="nonzero">
        <path fill="#000" fill-opacity=".54" d="M29.909 13.839c1.529.136 3.415-1.132 3.415-2.791 0-.42-.335-.76-.748-.76a.754.754 0 0 0-.748.76c0 .865-1.635 1.598-2.11 1.156-.487-2.548-1.84-4.89-3.931-6.748-2.64-2.343-6.139-3.633-9.858-3.633a15.72 15.72 0 0 0-4.232.576c-.79-.983-2.16-2.042-4.448-2.33a1.57 1.57 0 0 0-1.567.814 1.593 1.593 0 0 0 .043 1.623c.598.97.783 1.904.537 2.775v.012c-1.648 1.403-2.875 3.138-3.597 5.055h-.5c-1.172 0-2.128.971-2.134 2.186v3.483c0 1.19.956 2.161 2.128 2.161h.432c.666 1.867 1.82 3.577 3.362 4.98.012.013.031.025.043.038l.013.013c.055.05.117.1.172.15 1.191 1.102 1.296 2.38 1.302 2.65v1.14c0 .833.673 1.516 1.493 1.516h4.596c.82 0 1.493-.683 1.493-1.516v-.288c.722.037 1.443.025 2.159-.032v.313c0 .834.672 1.516 1.493 1.516h4.596c.765 0 1.413-.595 1.487-1.365.006-.025.006-.057.006-.088v-.395c.03-.676.247-2.355 1.517-3.683.895-.94 1.69-2.155 2.35-3.614.402-.796.71-1.635.92-2.493.006-.025.012-.038.012-.038a11.156 11.156 0 0 0 .304-3.143zm-1.597-1.092a9.771 9.771 0 0 1-.132 3.878v.012c0 .007-.006.013-.006.02a10.128 10.128 0 0 1-.808 2.185c-.006.007-.006.013-.012.026-.599 1.309-1.302 2.386-2.085 3.207-1.641 1.71-1.9 3.84-1.938 4.679v.382c0 .006-.006.013-.012.013h-4.596c-.006 0-.012-.007-.012-.013V25.99a.762.762 0 0 0-.253-.564.723.723 0 0 0-.586-.182 14.242 14.242 0 0 1-3.461.05c-.03-.006-.056-.006-.08-.006a.733.733 0 0 0-.494.194.743.743 0 0 0-.247.558v1.096c0 .006-.006.013-.012.013H8.982c-.006 0-.012-.007-.012-.013v-1.152-.02c-.013-.5-.18-2.254-1.795-3.745-.007 0-.013-.006-.019-.013l-.166-.15-.007-.006-.012-.013C5.472 20.677 4.386 19 3.837 17.182a.742.742 0 0 0-.71-.532h-.962a.653.653 0 0 1-.647-.658h.006v-3.47c0-.363.29-.658.648-.658h1.017c.321 0 .605-.213.704-.52.623-1.929 1.838-3.677 3.516-5.055a.745.745 0 0 0 .278-.564c0-.006.006-.018.006-.025.358-1.278.117-2.656-.703-3.984-.013-.012-.031-.05-.007-.094a.09.09 0 0 1 .093-.05c2.097.27 3.19 1.303 3.738 2.13a.737.737 0 0 0 .84.295 14.007 14.007 0 0 1 4.28-.664c6.229 0 11.41 4.035 12.357 9.292.004.041.01.082.021.122z"/>
        <path fill="#EF4123" d="M19.155 12.616c.27 0 .546.326.546.614 0 .28-.27.554-.546.554l-1.067-.064c-.094 1.438-.905 2.368-2.874 2.368l-.608-.118 3.045 3.093a.55.55 0 0 1-.018.777 1.787 1.787 0 0 1-.186.086.567.567 0 0 1-.203.043.569.569 0 0 1-.266-.042.463.463 0 0 1-.14-.1l-3.881-3.94c-.18-.184-.213-.382-.128-.634.134-.204.334-.334.534-.334h1.851c1.288 0 1.705-.4 1.851-1.195h-3.702c-.276 0-.545-.274-.545-.554 0-.281.269-.554.545-.554l3.464.103c-.247-.44-.69-.632-1.613-.632h-1.85c-.277 0-.546-.274-.546-.554 0-.281.269-.554.545-.554h5.852c.276 0 .545.273.545.554 0 .28-.269.554-.545.554l-1.496-.108c.137.209.25.457.242.637h1.194z"/>
    </g>
</svg>
