<svg xmlns="http://www.w3.org/2000/svg" width="27" height="32" viewBox="0 0 27 32">
    <g fill="none" fill-rule="nonzero">
        <path fill="#000" fill-opacity=".54" d="M26.868 5.391a.866.866 0 0 0-.745-.844 28.596 28.596 0 0 1-5.898-1.44c-1.921-.695-4.048-1.665-6.341-2.942a.811.811 0 0 0-.856 0C10.751 1.442 8.64 2.41 6.703 3.107c-1.932.695-3.9 1.17-5.881 1.44-.429.058-.73.422-.777.844-.19 8.027 1.59 14.595 5.326 19.7 2.035 2.78 4.582 5.038 7.657 6.759.238.172.61.16.888 0 3.052-1.75 5.595-3.99 7.625-6.76 3.74-5.101 5.507-11.672 5.327-19.699zm-6.754 18.714c-1.765 2.406-3.979 4.412-6.658 6.024-2.679-1.612-4.904-3.61-6.658-6.024C3.4 19.43 1.741 13.45 1.804 6.158c1.87-.297 3.726-.798 5.58-1.47 1.855-.674 3.884-1.597 6.072-2.77 2.188 1.173 4.201 2.096 6.056 2.77a30.446 30.446 0 0 0 5.596 1.47c.063 7.338-1.606 13.328-4.994 17.947z"/>
        <path fill="#EF4123" stroke="#EF4123" stroke-width=".2" d="M11.3 19.417l-2.855-3.488c-.272-.335-.204-.805.136-1.006.34-.268.815-.201 1.02.134l1.902 2.347 7.135-5.432c.34-.269.815-.201 1.02.134.271.335.203.805-.137 1.006L11.3 19.417z"/>
    </g>
</svg>
