<?xml version="1.0" encoding="UTF-8" standalone="no"?>
<svg width="22px" height="38px" viewBox="0 0 22 38" version="1.1" xmlns="http://www.w3.org/2000/svg" xmlns:xlink="http://www.w3.org/1999/xlink">
    <!-- Generator: Sketch 49 (51002) - http://www.bohemiancoding.com/sketch -->
    <title>Group 26</title>
    <desc>Created with Sketch.</desc>
    <defs></defs>
    <g id="Page-4-Copy" stroke="none" stroke-width="1" fill="none" fill-rule="evenodd">
        <g id="Group-26">
            <path d="M13.1312592,13.0277244 L11.6365335,13.0277244 L10.9986193,14.2958399 L10.3604566,13.0277244 L8.86597939,13.0277244 L10.2618741,15.8023855 L10.2618741,17.1087606 L11.7356406,17.1087606 L11.7356406,15.8023855 L13.1312592,13.0277244 Z M14.9212077,15.8306644 C14.5125184,15.8306644 14.1803203,15.4971395 14.1803203,15.0868179 C14.1803203,14.6764963 14.5125184,14.3429714 14.9212077,14.3429714 C15.3296208,14.3429714 15.6623711,14.6764963 15.6623711,15.0868179 C15.6623711,15.4971395 15.3296208,15.8306644 14.9212077,15.8306644 Z M14.9212077,13 C13.7746686,13 12.8424153,13.9359768 12.8424153,15.0868179 C12.8424153,16.237659 13.7746686,17.173913 14.9212077,17.173913 C16.067222,17.173913 17,16.237659 17,15.0868179 C17,13.9359768 16.067222,13 14.9212077,13 Z M7.07851621,15.8306644 C6.67010309,15.8306644 6.33790501,15.4971395 6.33790501,15.0868179 C6.33790501,14.6764963 6.67010309,14.3429714 7.07851621,14.3429714 C7.48720545,14.3429714 7.81967968,14.6764963 7.81967968,15.0868179 C7.81967968,15.4971395 7.48720545,15.8306644 7.07851621,15.8306644 Z M7.07851621,13 C5.93255706,13 5,13.9359768 5,15.0868179 C5,16.237659 5.93255706,17.173913 7.07851621,17.173913 C8.22477909,17.173913 9.15730854,16.237659 9.15730854,15.0868179 C9.15730854,13.9359768 8.22477909,13 7.07851621,13 L7.07851621,13 Z" id="Fill-665" fill="#EF4023"></path>
            <path d="M2.75,37.2307692 C1.23383333,37.2307692 0,35.9779538 0,34.4384615 L0,2.79230769 C0,1.25281538 1.23383333,0 2.75,0 L19.25,0 C20.7661667,0 22,1.25281538 22,2.79230769 L22,34.4384615 C22,35.9779538 20.7661667,37.2307692 19.25,37.2307692 L2.75,37.2307692 Z M1.27632278,2.30310239 C1.27632278,1.78931777 1.68698945,1.37233316 2.19298945,1.37233316 L19.8937086,1.37233316 C20.3997086,1.37233316 20.8103752,1.78931777 20.8103752,2.30310239 L20.8103752,35.1250332 C20.8103752,35.6388178 20.3997086,36.0558024 19.8937086,36.0558024 L2.19298945,36.0558024 C1.68698945,36.0558024 1.27632278,35.6388178 1.27632278,35.1250332 L1.27632278,2.30310239 Z M10.0833333,34.5076923 L11.9166667,34.5076923 C12.4226667,34.5076923 12.8333333,34.0907077 12.8333333,33.5769231 C12.8333333,33.0631385 12.4226667,32.6461538 11.9166667,32.6461538 L10.0833333,32.6461538 C9.57733333,32.6461538 9.16666667,33.0631385 9.16666667,33.5769231 C9.16666667,34.0907077 9.57733333,34.5076923 10.0833333,34.5076923 Z" id="smartphone" fill="#757575"></path>
            <rect id="Rectangle-9" fill="#757575" x="1" y="30" width="20" height="1.29999995"></rect>
            <polygon id="Rectangle-9" fill="#757575" points="6 4 16 4 16 5.29999995 6 5.29999995"></polygon>
        </g>
    </g>
</svg>